<svg width="192" height="192" viewBox="0 0 192 192" fill="none" xmlns="http://www.w3.org/2000/svg">
<rect width="192" height="192" rx="8" fill="black"/>
<path d="M81.9641 147.447C73.7721 147.447 66.0067 146.765 58.6681 145.399C51.4148 143.949 45.8254 142.327 41.9001 140.535V115.191H70.0601C70.0601 117.837 70.6575 119.757 71.8521 120.951C73.0467 122.146 75.2227 122.743 78.3801 122.743C81.0255 122.743 82.9027 122.359 84.0121 121.591C85.2067 120.738 85.8041 119.501 85.8041 117.879C85.8041 116.514 85.2495 115.362 84.1401 114.423C83.0307 113.399 81.1107 112.375 78.3801 111.351L67.3721 107.511C57.9001 103.927 51.0734 99.7032 46.8921 94.8392C42.7961 89.9752 40.7481 83.4046 40.7481 75.1272C40.7481 65.0578 44.0334 57.4205 50.6041 52.2152C57.2601 46.9245 68.3107 44.2792 83.7561 44.2792C91.1801 44.2792 98.1347 45.0472 104.62 46.5832C111.191 48.0338 116.482 49.9965 120.492 52.4712V75.3832H94.8921C94.8921 71.1166 92.2467 68.9832 86.9561 68.9832C84.3961 68.9832 82.5615 69.3246 81.4521 70.0072C80.4281 70.6046 79.9161 71.7138 79.9161 73.3352C79.9161 74.7858 80.5135 75.9378 81.7081 76.7912C82.9881 77.6446 85.0361 78.5406 87.8521 79.4792L98.9881 83.3192C108.034 86.3912 114.604 90.4018 118.7 95.3512C122.882 100.215 124.972 106.615 124.972 114.551C124.972 125.389 121.303 133.581 113.964 139.127C106.711 144.674 96.0441 147.447 81.9641 147.447ZM131.094 145.655V124.663H151.062V145.655H131.094Z" fill="white"/>
<path d="M58.6682 145.399L58.2353 147.563L58.2645 147.569L58.6682 145.399ZM41.9002 140.535H39.6933V141.954L40.9837 142.543L41.9002 140.535ZM41.9002 115.191V112.984H39.6933V115.191H41.9002ZM70.0602 115.191H72.2671V112.984H70.0602V115.191ZM71.8522 120.951L70.2917 122.512L71.8522 120.951ZM84.0122 121.591L85.2683 123.406L85.2818 123.396L85.2948 123.387L84.0122 121.591ZM84.1401 114.423L82.6432 116.045L82.6783 116.077L82.7147 116.108L84.1401 114.423ZM78.3802 111.351L79.155 109.285L79.1312 109.276L79.1071 109.267L78.3802 111.351ZM67.3722 107.511L66.5911 109.575L66.6181 109.585L66.6452 109.595L67.3722 107.511ZM46.8922 94.8392L45.204 96.2609L45.2186 96.2779L46.8922 94.8392ZM50.6042 52.2152L51.9745 53.945L51.9774 53.9428L50.6042 52.2152ZM104.62 46.5832L104.111 48.7307L104.128 48.7345L104.144 48.7382L104.62 46.5832ZM120.492 52.4712H122.699V51.2397L121.651 50.593L120.492 52.4712ZM120.492 75.3832V77.5901H122.699V75.3832H120.492ZM94.8921 75.3832H92.6853V77.5901H94.8921V75.3832ZM81.4522 70.0072L82.5642 71.9135L82.5867 71.9002L82.6088 71.8868L81.4522 70.0072ZM81.7082 76.7912L80.4255 78.5869L80.4544 78.6077L80.484 78.6273L81.7082 76.7912ZM87.8522 79.4792L88.5716 77.3928L88.55 77.3855L87.8522 79.4792ZM98.9881 83.3192L98.2687 85.4056L98.2784 85.4089L98.9881 83.3192ZM118.7 95.3512L117 96.7583L117.013 96.7742L117.027 96.7899L118.7 95.3512ZM113.964 139.127L112.633 137.367L112.624 137.374L113.964 139.127ZM81.9641 145.24C73.8946 145.24 66.2652 144.568 59.0718 143.23L58.2645 147.569C65.7485 148.961 73.6497 149.654 81.9641 149.654V145.24ZM59.101 143.235C51.9141 141.798 46.516 140.217 42.8167 138.528L40.9837 142.543C45.135 144.438 50.9155 146.099 58.2353 147.563L59.101 143.235ZM44.1071 140.535V115.191H39.6933V140.535H44.1071ZM41.9002 117.398H70.0602V112.984H41.9002V117.398ZM67.8533 115.191C67.8533 118.1 68.5008 120.721 70.2917 122.512L73.4127 119.391C72.8141 118.792 72.2671 117.573 72.2671 115.191H67.8533ZM70.2917 122.512C72.1382 124.358 75.0936 124.95 78.3802 124.95V120.536C75.3518 120.536 73.9553 119.933 73.4127 119.391L70.2917 122.512ZM78.3802 124.95C81.1132 124.95 83.5756 124.578 85.2683 123.406L82.756 119.777C82.2299 120.141 80.9377 120.536 78.3802 120.536V124.95ZM85.2948 123.387C87.1365 122.072 88.011 120.127 88.011 117.879H83.5973C83.5973 118.874 83.277 119.404 82.7295 119.795L85.2948 123.387ZM88.011 117.879C88.011 115.819 87.1342 114.066 85.5656 112.738L82.7147 116.108C83.3646 116.658 83.5973 117.209 83.5973 117.879H88.011ZM85.6371 112.802C84.203 111.478 81.9509 110.333 79.155 109.285L77.6053 113.417C80.2708 114.417 81.8587 115.321 82.6432 116.045L85.6371 112.802ZM79.1071 109.267L68.0991 105.427L66.6452 109.595L77.6532 113.435L79.1071 109.267ZM68.1532 105.447C58.8459 101.926 52.4061 97.8679 48.5657 93.4005L45.2186 96.2779C49.7409 101.538 56.9544 105.929 66.5911 109.575L68.1532 105.447ZM48.5802 93.4177C44.9094 89.0584 42.9551 83.0438 42.9551 75.1272H38.5413C38.5413 83.7652 40.6829 90.8919 45.2041 96.2606L48.5802 93.4177ZM42.9551 75.1272C42.9551 65.581 46.0402 58.6462 51.9745 53.945L49.2338 50.4853C42.0267 56.1948 38.5413 64.5347 38.5413 75.1272H42.9551ZM51.9774 53.9428C58.0329 49.1295 68.4504 46.4861 83.7561 46.4861V42.0723C68.1713 42.0723 56.4875 44.7195 49.2309 50.4876L51.9774 53.9428ZM83.7561 46.4861C91.0281 46.4861 97.8106 47.2383 104.111 48.7307L105.129 44.4357C98.4592 42.856 91.3322 42.0723 83.7561 42.0723V46.4861ZM104.144 48.7382C110.568 50.1564 115.602 52.0472 119.333 54.3493L121.651 50.593C117.361 47.9458 111.814 45.9113 105.096 44.4282L104.144 48.7382ZM118.285 52.4712V75.3832H122.699V52.4712H118.285ZM120.492 73.1763H94.8921V77.5901H120.492V73.1763ZM97.099 75.3832C97.099 72.7689 96.2653 70.4554 94.2936 68.8653C92.4125 67.3483 89.8403 66.7763 86.9562 66.7763V71.1901C89.3625 71.1901 90.7584 71.6846 91.5227 72.301C92.1964 72.8444 92.6853 73.7309 92.6853 75.3832H97.099ZM86.9562 66.7763C84.3138 66.7763 81.9529 67.1078 80.2955 68.1276L82.6088 71.8868C83.1702 71.5412 84.4785 71.1901 86.9562 71.1901V66.7763ZM80.3401 68.1009C78.398 69.2339 77.7093 71.2536 77.7093 73.3352H82.123C82.123 72.1739 82.4583 71.9751 82.5642 71.9135L80.3401 68.1009ZM77.7093 73.3352C77.7093 75.5087 78.6591 77.3252 80.4255 78.5869L82.9908 74.9954C82.3678 74.5503 82.123 74.063 82.123 73.3352H77.7093ZM80.484 78.6273C82.0153 79.6484 84.2907 80.6184 87.1543 81.5729L88.55 77.3855C85.7816 76.4628 83.9609 75.6407 82.9323 74.9548L80.484 78.6273ZM87.1327 81.5656L98.2687 85.4056L99.7076 81.2328L88.5716 77.3928L87.1327 81.5656ZM98.2784 85.4089C107.113 88.4092 113.262 92.2414 117 96.7583L120.4 93.9441C115.946 88.5623 108.954 84.3732 99.6979 81.2295L98.2784 85.4089ZM117.027 96.7899C120.788 101.165 122.765 107.013 122.765 114.551H127.179C127.179 106.217 124.975 99.2653 120.374 93.9125L117.027 96.7899ZM122.765 114.551C122.765 124.836 119.318 132.314 112.633 137.367L115.295 140.888C123.288 134.847 127.179 125.941 127.179 114.551H122.765ZM112.624 137.374C105.914 142.505 95.8071 145.24 81.9641 145.24V149.654C96.2812 149.654 107.508 146.843 115.305 140.88L112.624 137.374ZM131.094 145.655H128.887V147.862H131.094V145.655ZM131.094 124.663V122.456H128.887V124.663H131.094ZM151.062 124.663H153.269V122.456H151.062V124.663ZM151.062 145.655V147.862H153.269V145.655H151.062ZM133.301 145.655V124.663H128.887V145.655H133.301ZM131.094 126.87H151.062V122.456H131.094V126.87ZM148.855 124.663V145.655H153.269V124.663H148.855ZM151.062 143.448H131.094V147.862H151.062V143.448Z" fill="black"/>
</svg>
