<svg width="725" height="717" viewBox="0 0 725 717" fill="none" xmlns="http://www.w3.org/2000/svg">
<path d="M171 600C336.685 600 471 465.685 471 300C471 134.315 336.685 0 171 0C5.31458 0 -129 134.315 -129 300C-129 465.685 5.31458 600 171 600Z" fill="#1E0A7A" fill-opacity="0.47"/>
<path d="M171 599.5C336.409 599.5 470.5 465.409 470.5 300C470.5 134.591 336.409 0.5 171 0.5C5.59071 0.5 -128.5 134.591 -128.5 300C-128.5 465.409 5.59071 599.5 171 599.5Z" stroke="#1E0A7A"/>
<path d="M525 717C635.457 717 725 627.457 725 517C725 406.543 635.457 317 525 317C414.543 317 325 406.543 325 517C325 627.457 414.543 717 525 717Z" fill="#7C5FFB" fill-opacity="0.21"/>
<path d="M525 716.5C635.181 716.5 724.5 627.181 724.5 517C724.5 406.819 635.181 317.5 525 317.5C414.819 317.5 325.5 406.819 325.5 517C325.5 627.181 414.819 716.5 525 716.5Z" stroke="#1E0A7A"/>
</svg>
