<svg width="60" height="60" viewBox="0 0 60 60" fill="none" xmlns="http://www.w3.org/2000/svg">
<path d="M15.5 16.5H47.5" stroke="white" stroke-width="3" stroke-linecap="round"/>
<path d="M27.642 20.433C27.6401 20.8068 27.5794 21.1781 27.462 21.533C27.3514 21.8832 27.1993 22.2189 27.009 22.533C26.8469 22.8039 26.6446 23.0487 26.409 23.259C26.2494 23.4221 26.0364 23.5222 25.809 23.541C25.735 23.5415 25.6636 23.514 25.609 23.464C25.5517 23.4127 25.523 23.2843 25.523 23.079C25.5255 22.8362 25.5422 22.5938 25.573 22.353C25.6035 22.1178 25.6202 21.8811 25.623 21.644C25.6252 21.3994 25.5441 21.1614 25.393 20.969C25.2256 20.7564 25.0114 20.5853 24.767 20.469C24.4661 20.3257 24.1467 20.2248 23.818 20.169C23.4219 20.0992 23.0203 20.0657 22.618 20.069C22.2347 20.069 21.851 20.086 21.467 20.12L20.345 20.22C19.8182 20.2712 19.2976 20.3744 18.791 20.528C18.254 20.6881 17.7298 20.8887 17.223 21.128C16.722 21.3632 16.2387 21.6346 15.777 21.94C15.3528 22.2178 14.9516 22.5291 14.577 22.871C14.26 23.1562 13.9841 23.484 13.757 23.845C13.5744 24.1194 13.4706 24.4387 13.457 24.768C13.4606 25.001 13.512 25.2307 13.608 25.443C13.7135 25.6862 13.8478 25.9158 14.008 26.127C14.1833 26.3573 14.3784 26.5718 14.591 26.768C14.8089 26.9708 15.0397 27.1592 15.282 27.332C15.6884 27.6132 16.1112 27.87 16.548 28.101C16.9794 28.329 17.435 28.5453 17.915 28.75C18.395 28.9547 18.901 29.1513 19.433 29.34C19.9664 29.528 20.5394 29.7247 21.152 29.93C22.8631 30.3996 24.4576 31.2203 25.834 32.34C26.3433 32.7731 26.7508 33.3132 27.0273 33.9218C27.3039 34.5304 27.4428 35.1926 27.434 35.861C27.4208 36.2368 27.3479 36.6081 27.218 36.961C27.062 37.4157 26.8669 37.856 26.635 38.277C26.3881 38.7367 26.1045 39.1758 25.787 39.59C25.4813 39.9902 25.134 40.3569 24.751 40.684C23.6906 41.5708 22.483 42.2649 21.183 42.735C19.7866 43.2187 18.3167 43.4555 16.839 43.435C16.321 43.435 15.7877 43.4123 15.239 43.367C14.6904 43.3217 14.1734 43.266 13.688 43.2C13.1987 43.1333 12.7654 43.0593 12.388 42.978C12.1091 42.9235 11.8331 42.8551 11.561 42.773C11.3751 42.7147 11.1925 42.6463 11.014 42.568C10.8363 42.4909 10.6714 42.387 10.525 42.26C10.3777 42.1298 10.2601 41.9696 10.18 41.79C10.0879 41.5713 10.0439 41.3353 10.051 41.098C10.0551 40.9678 10.0745 40.8386 10.109 40.713C10.1479 40.5584 10.206 40.4092 10.282 40.269C10.3558 40.1307 10.4532 40.0065 10.57 39.902C10.6752 39.8034 10.8139 39.7483 10.958 39.748C11.3105 39.7577 11.6605 39.8108 12 39.906C12.4174 40.014 12.892 40.1307 13.424 40.256C13.956 40.3813 14.5364 40.498 15.165 40.606C15.8186 40.7162 16.4803 40.7704 17.143 40.768C17.6925 40.7661 18.2409 40.7203 18.783 40.631C19.3433 40.5411 19.8962 40.4098 20.437 40.238C20.9644 40.071 21.4788 39.8655 21.976 39.623C22.4383 39.4012 22.8768 39.1332 23.285 38.823C23.5099 38.6374 23.7114 38.4252 23.885 38.191C24.0834 37.9332 24.2635 37.6619 24.424 37.379C24.5757 37.1137 24.7054 36.8364 24.812 36.55C24.8996 36.3378 24.9506 36.1123 24.963 35.883C24.9593 35.6198 24.8767 35.3638 24.726 35.148C24.555 34.8928 24.3436 34.6672 24.1 34.48C23.8201 34.2643 23.5243 34.0701 23.215 33.899C22.889 33.717 22.558 33.5503 22.222 33.399C21.886 33.2477 21.5647 33.111 21.258 32.989C20.9514 32.8697 20.6827 32.7697 20.452 32.689C20.126 32.5637 19.7304 32.4157 19.265 32.245C18.7997 32.0743 18.32 31.8893 17.826 31.69C17.332 31.49 16.855 31.29 16.395 31.09C15.9963 30.9209 15.6074 30.7296 15.23 30.517C13.9789 29.8406 12.8722 28.9261 11.972 27.825C11.2394 26.9236 10.8359 25.7995 10.828 24.638C10.83 24.1209 10.9404 23.6099 11.152 23.138C11.3806 22.6291 11.684 22.1572 12.052 21.738C12.456 21.271 12.9078 20.8477 13.4 20.475C13.9338 20.0716 14.499 19.7115 15.09 19.398C15.7112 19.0676 16.3525 18.7763 17.01 18.526C17.6727 18.2723 18.3499 18.0583 19.038 17.885C19.2534 17.8321 19.4723 17.795 19.693 17.774C19.9597 17.7453 20.2404 17.717 20.535 17.689C20.8297 17.661 21.134 17.6383 21.448 17.621C21.76 17.6037 22.043 17.5923 22.297 17.587C22.551 17.5817 22.7644 17.576 22.937 17.57C23.1097 17.564 23.215 17.561 23.253 17.561C23.7092 17.5664 24.164 17.6122 24.612 17.698C25.1087 17.787 25.5904 17.9452 26.043 18.168C26.479 18.3788 26.8659 18.6786 27.179 19.048C27.496 19.4384 27.6605 19.9305 27.642 20.433ZM44.919 23.7C44.919 25.8333 44.8687 27.679 44.768 29.237C44.6991 30.538 44.5427 31.833 44.3 33.113C44.2343 33.4409 44.1454 33.7637 44.034 34.079C43.9047 34.461 43.738 34.914 43.534 35.438C43.33 35.962 43.1384 36.4287 42.959 36.838C42.777 37.248 42.6044 37.6013 42.441 37.898C42.3644 38.0233 42.259 38.19 42.125 38.398C41.991 38.606 41.8184 38.851 41.607 39.133C40.9897 40.0319 40.1925 40.7929 39.266 41.368C38.3697 41.8502 37.3636 42.0914 36.346 42.068C35.5086 42.0652 34.6727 41.9967 33.846 41.863C32.9903 41.7234 32.157 41.4705 31.368 41.111C30.6362 40.795 29.9903 40.3089 29.484 39.693C29.3201 39.4971 29.233 39.2483 29.239 38.993C29.2365 38.7557 29.2807 38.5202 29.369 38.3C29.4496 38.0981 29.5666 37.9127 29.714 37.753C29.8538 37.6019 30.0243 37.4826 30.214 37.403C30.4104 37.3223 30.6208 37.2816 30.833 37.283C31.4706 37.4363 32.0817 37.684 32.646 38.018L33.912 38.625C34.2574 38.7903 34.5307 38.9187 34.732 39.01C35.1086 39.1752 35.5148 39.2623 35.926 39.266C37.0599 39.3175 38.1735 38.9526 39.057 38.24C39.9737 37.372 40.6418 36.2748 40.992 35.062C41.786 32.4086 42.1457 29.6442 42.057 26.876C42.057 26.3973 42.0404 25.6283 42.007 24.569C41.9737 23.5097 41.9234 22.143 41.856 20.469C41.836 19.875 41.8174 19.352 41.8 18.9C41.7827 18.448 41.773 18.075 41.771 17.781C41.7644 17.7357 41.7673 17.6894 41.7798 17.6453C41.7922 17.6012 41.8137 17.5602 41.843 17.525C41.9157 17.4155 41.9977 17.3124 42.088 17.217C42.184 17.1143 42.28 17.0203 42.376 16.935C42.4528 16.8686 42.525 16.7971 42.592 16.721C42.6655 16.6488 42.7536 16.5931 42.8503 16.5578C42.9471 16.5224 43.0503 16.5082 43.153 16.516C43.419 16.5118 43.6782 16.5994 43.887 16.764C44.0977 16.9288 44.245 17.1612 44.304 17.422C44.3319 17.5876 44.3513 17.7545 44.362 17.922C44.3907 18.2293 44.4387 18.6793 44.506 19.272C44.6394 20.4453 44.7424 21.425 44.815 22.211C44.8877 22.997 44.9224 23.4933 44.919 23.7ZM50.4 38.394C50.384 38.7726 50.3409 39.1496 50.271 39.522C50.0756 39.996 49.764 40.4131 49.365 40.735C48.799 41.2683 48.4057 41.535 48.185 41.535C47.9721 41.5444 47.76 41.5033 47.566 41.415C47.4088 41.3316 47.2826 41.1997 47.206 41.039C47.1111 40.8348 47.0552 40.6147 47.041 40.39C47.017 40.128 47.005 39.809 47.005 39.433C46.9956 38.9709 47.015 38.5087 47.063 38.049C47.1017 37.5363 47.7827 37.28 49.106 37.28H49.422C49.5989 37.3046 49.7676 37.3698 49.9149 37.4707C50.0622 37.5715 50.1841 37.7051 50.271 37.861C50.373 38.019 50.4184 38.2069 50.4 38.394Z" fill="white"/>
<path d="M37.8799 23.394C37.8605 23.7737 37.809 24.151 37.7259 24.522C37.6693 24.784 37.3103 25.1884 36.6489 25.735C36.2606 26.1199 35.7777 26.3958 35.2489 26.535C34.9984 26.5448 34.7484 26.504 34.5139 26.415C34.3352 26.3383 34.1857 26.2066 34.0869 26.039C33.9743 25.8396 33.906 25.6183 33.8869 25.39C33.8557 25.072 33.8414 24.7526 33.8439 24.433C33.8325 23.9707 33.8552 23.5081 33.9119 23.049C33.9573 22.5364 34.7663 22.28 36.3389 22.28H36.7179C36.9176 22.2995 37.1109 22.3614 37.2847 22.4616C37.4586 22.5618 37.609 22.698 37.7259 22.861C37.8448 23.0118 37.9001 23.2031 37.8799 23.394Z" fill="white"/>
</svg>
