<svg width="496" height="533" viewBox="0 0 496 533" fill="none" xmlns="http://www.w3.org/2000/svg">
<path d="M494.389 341L156.61 341L325.5 531.746L494.389 341Z" fill="#BA08FD" fill-opacity="0.47"/>
<path d="M325.5 530.991L157.721 341.5L493.278 341.5L325.5 530.991ZM325.5 532.5L495.499 340.5L155.5 340.5L325.5 532.5Z" fill="#1E0A7A"/>
<path d="M325.5 0.50002C419.388 0.50002 495.499 76.6116 495.499 170.5C495.499 264.388 419.388 340.5 325.5 340.5C231.611 340.5 155.5 264.388 155.5 170.5C155.5 76.6116 231.611 0.50002 325.5 0.50002Z" fill="#7C5FFB" fill-opacity="0.16"/>
<path d="M325.5 1.00002C419.112 1.00002 494.999 76.8877 494.999 170.5C494.999 264.112 419.112 340 325.5 340C231.887 340 156 264.112 156 170.5C156 76.8877 231.887 1.00002 325.5 1.00002Z" stroke="#1E0A7A"/>
<path d="M154.999 339.301L154.999 34.6989L1.20947 187L154.999 339.301Z" fill="#BA08FD" fill-opacity="0.47"/>
<path d="M1.92064 187L154.499 35.8977L154.499 338.102L1.92064 187ZM0.499512 187L155.499 340.5L155.499 33.5L0.499512 187Z" fill="#1E0A7A"/>
</svg>
