<svg width="495" height="530" viewBox="0 0 495 530" fill="none" xmlns="http://www.w3.org/2000/svg">
<path d="M493.89 191.5H156.111L325 0.754272L493.89 191.5Z" fill="#BA08FD" fill-opacity="0.47"/>
<path d="M325 1.50848L157.221 191H492.779L325 1.50848ZM325 0L495 192H155L325 0Z" fill="#1E0A7A"/>
<path d="M325 530C418.888 530 495 453.888 495 360C495 266.112 418.888 190 325 190C231.112 190 155 266.112 155 360C155 453.888 231.112 530 325 530Z" fill="#7C5FFB" fill-opacity="0.16"/>
<path d="M325 529.5C418.612 529.5 494.5 453.612 494.5 360C494.5 266.388 418.612 190.5 325 190.5C231.388 190.5 155.5 266.388 155.5 360C155.5 453.612 231.388 529.5 325 529.5Z" stroke="#1E0A7A"/>
<path d="M154.499 191.199L154.499 495.801L0.709961 343.5L154.499 191.199Z" fill="#BA08FD" fill-opacity="0.47"/>
<path d="M1.42113 343.5L154 494.602L154 192.398L1.42113 343.5ZM0 343.5L155 190L155 497L0 343.5Z" fill="#1E0A7A"/>
</svg>
