<svg width="1015" height="598" viewBox="0 0 1015 598" fill="none" xmlns="http://www.w3.org/2000/svg">
<g clip-path="url(#clip0)">
<path d="M2 100H965V511C965 518.18 959.18 524 952 524H15C7.82032 524 2 518.18 2 511V100Z" fill="white"/>
<path d="M411 596H404.984C403.662 596 402.395 595.475 401.46 594.54C400.525 593.605 400 592.338 400 591.016V574H411L415.421 590.211C415.607 590.891 415.633 591.605 415.498 592.296C415.363 592.988 415.07 593.639 414.642 594.199C414.214 594.759 413.663 595.213 413.031 595.525C412.4 595.838 411.705 596 411 596H411Z" fill="#605D82"/>
<path d="M776.776 150H93.2244C85.9208 150 80 155.921 80 163.224V406.776C80 414.079 85.9208 420 93.2244 420H776.776C784.079 420 790 414.079 790 406.776V163.224C790 155.921 784.079 150 776.776 150Z" fill="#EFF1FF"/>
<path d="M950.862 0.5H16.1378C8.60585 0.5 2.5 6.60585 2.5 14.1378V509.862C2.5 517.394 8.60585 523.5 16.1378 523.5H950.862C958.394 523.5 964.5 517.394 964.5 509.862V14.1378C964.5 6.60585 958.394 0.5 950.862 0.5Z" stroke="#3F3D56" stroke-miterlimit="10"/>
<path d="M0 37.0394H964" stroke="#3F3D56" stroke-miterlimit="10"/>
<path d="M0 100.5H962" stroke="#3F3D56" stroke-miterlimit="10"/>
<path d="M225 94C236.046 94 245 85.0457 245 74C245 62.9543 236.046 54 225 54C213.954 54 205 62.9543 205 74C205 85.0457 213.954 94 225 94Z" fill="#F1F1F1"/>
<path d="M230 89C241.046 89 250 80.0457 250 69C250 57.9543 241.046 49 230 49C218.954 49 210 57.9543 210 69C210 80.0457 218.954 89 230 89Z" stroke="#28282C" stroke-miterlimit="10"/>
<path d="M598.577 63.5H510.423C507.428 63.5 505 65.9281 505 68.9232V85.0768C505 88.0719 507.428 90.5 510.423 90.5H598.577C601.572 90.5 604 88.0719 604 85.0768V68.9232C604 65.9281 601.572 63.5 598.577 63.5Z" fill="#EFF1FF"/>
<path d="M739.577 63.5H651.423C648.428 63.5 646 65.9281 646 68.9232V85.0768C646 88.0719 648.428 90.5 651.423 90.5H739.577C742.572 90.5 745 88.0719 745 85.0768V68.9232C745 65.9281 742.572 63.5 739.577 63.5Z" fill="#EFF1FF"/>
<path d="M606.778 55.5H516.222C513.89 55.5 512 57.3904 512 59.7224V78.2776C512 80.6095 513.89 82.5 516.222 82.5H606.778C609.11 82.5 611 80.6095 611 78.2776V59.7224C611 57.3904 609.11 55.5 606.778 55.5Z" stroke="#3F3D56" stroke-miterlimit="10"/>
<path d="M747.778 55.5H657.222C654.89 55.5 653 57.3904 653 59.7224V78.2776C653 80.6095 654.89 82.5 657.222 82.5H747.778C750.11 82.5 752 80.6095 752 78.2776V59.7224C752 57.3904 750.11 55.5 747.778 55.5Z" stroke="#3F3D56" stroke-miterlimit="10"/>
<path d="M809.496 165.5H131.504C122.665 165.5 115.5 172.665 115.5 181.504V419.496C115.5 428.335 122.665 435.5 131.504 435.5H809.496C818.335 435.5 825.5 428.335 825.5 419.496V181.504C825.5 172.665 818.335 165.5 809.496 165.5Z" stroke="#3F3D56" stroke-miterlimit="10"/>
<path d="M383.099 430.704C383.099 430.704 370.85 473.31 370.318 491.95C369.785 510.59 367.655 540.415 369.252 547.871C370.85 555.327 375.643 570.239 375.643 570.239C375.643 570.239 385.762 557.99 389.49 564.913C389.49 564.913 388.958 550.534 386.295 546.273C386.295 546.273 387.36 523.905 387.36 515.916C387.36 507.928 400.674 471.18 401.74 470.647C402.805 470.115 406 480.766 403.337 504.199C400.674 527.633 398.544 568.652 398.544 572.913C398.544 577.174 404.935 585.695 409.196 583.032C413.456 580.369 416.119 557.457 416.119 557.457C416.119 557.457 419.847 509.525 421.977 504.199C424.108 498.874 435.292 437.627 426.771 432.834C418.249 428.041 383.099 430.704 383.099 430.704Z" fill="#46455B"/>
<path d="M392.153 569.174C391.62 571.304 389.49 581.423 389.49 584.618C389.49 587.814 391.62 593.672 382.567 595.802C373.747 597.879 375.036 592.373 373.63 589.135C373.593 589.049 373.556 588.964 373.513 588.879C371.915 585.684 375.643 569.174 376.176 569.174C376.489 569.174 379.008 564.945 381.032 561.457C381.456 560.714 382.043 560.076 382.748 559.592C383.453 559.108 384.259 558.79 385.105 558.662C385.951 558.534 386.815 558.599 387.632 558.853C388.45 559.107 389.199 559.543 389.823 560.127C390.664 560.942 391.331 561.918 391.786 562.996C392.24 564.075 392.472 565.234 392.467 566.404C392.484 567.337 392.378 568.268 392.153 569.174V569.174Z" fill="#605D82"/>
<path opacity="0.1" d="M392.153 569.174C391.62 571.304 389.49 581.423 389.49 584.618C389.49 587.814 391.62 593.672 382.567 595.802C373.747 597.879 375.036 592.373 373.63 589.135C375.159 585.162 378.871 576.624 381.502 569.174C383.824 562.591 389.533 564.737 392.467 566.404C392.484 567.337 392.378 568.268 392.153 569.174V569.174Z" fill="black"/>
<path d="M407.598 348.155C413.775 348.155 418.782 343.148 418.782 336.971C418.782 330.794 413.775 325.787 407.598 325.787C401.421 325.787 396.414 330.794 396.414 336.971C396.414 343.148 401.421 348.155 407.598 348.155Z" fill="#FBBEBE"/>
<path d="M398.544 339.101L396.946 356.676L416.119 359.872C416.119 359.872 413.989 344.427 415.586 341.231C417.184 338.036 398.544 339.101 398.544 339.101Z" fill="#FBBEBE"/>
<path d="M825.163 474.191C825.163 533.151 862.152 580.861 907.862 580.861Z" fill="#3DBF00"/>
<path d="M907.862 580.861C907.862 521.239 949.14 472.993 1000.15 472.993Z" fill="#88CC45"/>
<path d="M855.127 479.536C855.127 535.542 878.714 580.861 907.862 580.861Z" fill="#88CC45"/>
<path d="M907.862 580.861C907.862 504.677 955.572 443.029 1014.53 443.029Z" fill="#3DBF00"/>
<path d="M890.465 581.613C890.465 581.613 902.193 581.252 905.727 578.735C909.262 576.218 923.768 573.213 924.645 577.25C925.522 581.286 942.27 597.326 929.029 597.433C915.788 597.539 898.263 595.37 894.735 593.221C891.207 591.072 890.465 581.613 890.465 581.613Z" fill="#A8A8A8"/>
<path opacity="0.2" d="M929.265 596.027C916.024 596.134 898.499 593.965 894.971 591.816C892.285 590.179 891.214 584.307 890.856 581.598C890.608 581.609 890.465 581.613 890.465 581.613C890.465 581.613 891.207 591.072 894.735 593.221C898.263 595.37 915.788 597.539 929.029 597.432C932.851 597.402 934.172 596.042 934.099 594.028C933.568 595.245 932.11 596.004 929.265 596.027Z" fill="black"/>
<path d="M275 596H500" stroke="#3F3D56" stroke-miterlimit="10"/>
<path d="M877 597L980 596.969" stroke="#3F3D56" stroke-miterlimit="10"/>
<path d="M3 14C3 6.8203 8.8203 1 16 1H951C958.18 1 964 6.8203 964 14V37H3V14Z" fill="#6E4AFF"/>
<path d="M24.5 32.5C30.0228 32.5 34.5 28.0228 34.5 22.5C34.5 16.9772 30.0228 12.5 24.5 12.5C18.9772 12.5 14.5 16.9772 14.5 22.5C14.5 28.0228 18.9772 32.5 24.5 32.5Z" fill="#F86B75"/>
<path d="M55.5 32.5C61.0228 32.5 65.5 28.0228 65.5 22.5C65.5 16.9772 61.0228 12.5 55.5 12.5C49.9772 12.5 45.5 16.9772 45.5 22.5C45.5 28.0228 49.9772 32.5 55.5 32.5Z" fill="#FAD375"/>
<path d="M58.5 28.5C64.0228 28.5 68.5 24.0228 68.5 18.5C68.5 12.9772 64.0228 8.5 58.5 8.5C52.9772 8.5 48.5 12.9772 48.5 18.5C48.5 24.0228 52.9772 28.5 58.5 28.5Z" stroke="#3F3D56" stroke-miterlimit="10"/>
<path d="M86.5 32.5C92.0228 32.5 96.5 28.0228 96.5 22.5C96.5 16.9772 92.0228 12.5 86.5 12.5C80.9772 12.5 76.5 16.9772 76.5 22.5C76.5 28.0228 80.9772 32.5 86.5 32.5Z" fill="#8BCC55"/>
<path d="M89.5 28.5C95.0228 28.5 99.5 24.0228 99.5 18.5C99.5 12.9772 95.0228 8.5 89.5 8.5C83.9772 8.5 79.5 12.9772 79.5 18.5C79.5 24.0228 83.9772 28.5 89.5 28.5Z" stroke="#3F3D56" stroke-miterlimit="10"/>
<path d="M27.5 28.5C33.0228 28.5 37.5 24.0228 37.5 18.5C37.5 12.9772 33.0228 8.5 27.5 8.5C21.9772 8.5 17.5 12.9772 17.5 18.5C17.5 24.0228 21.9772 28.5 27.5 28.5Z" stroke="#3F3D56" stroke-miterlimit="10"/>
<g clip-path="url(#clip1)">
<path d="M179.64 196.553L180.47 396.937C180.482 399.021 181.706 401.053 183.931 402.564C186.155 404.075 189.168 404.922 192.303 404.918L667.924 403.999C671.06 403.991 674.017 403.132 676.165 401.657C678.301 400.189 679.493 398.211 679.488 396.139C679.488 396.139 679.488 396.139 679.488 396.139L678.659 195.86C678.65 194.341 677.757 192.851 676.118 191.738C674.481 190.626 672.261 190.001 669.954 190.004L187.939 190.936L179.64 196.553ZM179.64 196.553C179.636 195.073 180.486 193.665 182.01 192.618M179.64 196.553L182.01 192.618M182.01 192.618C183.545 191.562 185.671 190.942 187.939 190.936L182.01 192.618Z" fill="#F2F2F2" stroke="#E0E0E0"/>
<path d="M654.209 392.991L210.942 393.847C207.802 393.853 204.951 393.041 202.888 391.728C200.821 390.413 199.583 388.623 199.575 386.693L198.852 212.195C198.847 210.82 199.706 209.573 201.136 208.653C202.577 207.725 204.614 207.122 206.914 207.117L656.14 206.249C658.478 206.244 660.602 206.85 662.137 207.828C663.676 208.808 664.587 210.135 664.593 211.553L665.315 385.959C665.322 387.871 664.123 389.605 662.142 390.88C660.15 392.162 657.35 392.985 654.209 392.991Z" fill="white" stroke="#B1B1B1"/>
<path d="M235.573 263.15L212.816 263.212C211.566 263.215 210.367 262.878 209.482 262.275C208.597 261.672 208.097 260.853 208.094 259.997L208.046 239.888C208.045 239.032 208.54 238.21 209.423 237.603C210.305 236.995 211.503 236.651 212.752 236.647L235.509 236.584C236.759 236.582 237.958 236.919 238.843 237.522C239.729 238.124 240.228 238.944 240.231 239.8L240.279 259.908C240.28 260.764 239.785 261.586 238.902 262.194C238.02 262.802 236.823 263.145 235.573 263.15Z" fill="#6A6A6A"/>
<path d="M604.785 293.155L582.028 293.217C580.778 293.22 579.579 292.883 578.694 292.28C577.809 291.677 577.31 290.858 577.306 290.002L577.258 269.893C577.258 269.037 577.753 268.215 578.635 267.608C579.517 267 580.715 266.656 581.965 266.652L604.721 266.589C605.971 266.587 607.17 266.924 608.056 267.527C608.941 268.13 609.44 268.949 609.443 269.805L609.492 289.913C609.492 290.769 608.997 291.591 608.115 292.199C607.232 292.807 606.035 293.15 604.785 293.155Z" fill="#6A6A6A"/>
<path d="M563.222 293.155L540.466 293.217C539.216 293.22 538.017 292.883 537.131 292.28C536.246 291.677 535.747 290.858 535.744 290.002L535.696 269.893C535.695 269.037 536.19 268.215 537.072 267.608C537.955 267 539.152 266.656 540.402 266.652L563.159 266.589C564.409 266.587 565.608 266.924 566.493 267.527C567.378 268.13 567.877 268.949 567.881 269.805L567.929 289.913C567.929 290.769 567.434 291.591 566.552 292.199C565.67 292.807 564.472 293.15 563.222 293.155Z" fill="#6A6A6A"/>
<path d="M521.66 293.155L498.903 293.217C497.653 293.22 496.454 292.883 495.569 292.28C494.684 291.677 494.185 290.858 494.181 290.002L494.133 269.893C494.132 269.037 494.627 268.215 495.51 267.608C496.392 267 497.59 266.656 498.839 266.652L521.596 266.589C522.846 266.587 524.045 266.924 524.93 267.527C525.816 268.13 526.315 268.949 526.318 269.805L526.366 289.913C526.367 290.769 525.872 291.591 524.989 292.199C524.107 292.807 522.91 293.15 521.66 293.155Z" fill="#6A6A6A"/>
<path d="M478.613 293.155L455.856 293.217C454.606 293.22 453.407 292.883 452.522 292.28C451.637 291.677 451.137 290.858 451.134 290.002L451.086 269.893C451.085 269.037 451.58 268.215 452.463 267.608C453.345 267 454.543 266.656 455.792 266.652L478.549 266.589C479.799 266.587 480.998 266.924 481.883 267.527C482.768 268.13 483.268 268.949 483.271 269.805L483.319 289.913C483.32 290.769 482.825 291.591 481.942 292.199C481.06 292.807 479.863 293.15 478.613 293.155Z" fill="#6A6A6A"/>
<path d="M438.534 293.155L415.778 293.217C414.528 293.22 413.329 292.883 412.444 292.28C411.558 291.677 411.059 290.858 411.056 290.002L411.008 269.893C411.007 269.037 411.502 268.215 412.385 267.608C413.267 267 414.464 266.656 415.714 266.652L438.471 266.589C439.721 266.587 440.92 266.924 441.805 267.527C442.69 268.13 443.189 268.949 443.193 269.805L443.241 289.913C443.242 290.769 442.746 291.591 441.864 292.199C440.982 292.807 439.784 293.15 438.534 293.155Z" fill="#6A6A6A"/>
<path d="M396.972 293.155L374.215 293.217C372.965 293.22 371.766 292.883 370.881 292.28C369.996 291.677 369.497 290.858 369.493 290.002L369.445 269.893C369.444 269.037 369.94 268.215 370.822 267.608C371.704 267 372.902 266.656 374.152 266.652L396.908 266.589C398.158 266.587 399.357 266.924 400.242 267.527C401.128 268.13 401.627 268.949 401.63 269.805L401.678 289.913C401.679 290.769 401.184 291.591 400.301 292.199C399.419 292.807 398.222 293.15 396.972 293.155Z" fill="#6A6A6A"/>
<path d="M355.409 293.155L332.652 293.217C331.403 293.22 330.204 292.883 329.318 292.28C328.433 291.677 327.934 290.858 327.93 290.002L327.882 269.893C327.882 269.037 328.377 268.215 329.259 267.608C330.142 267 331.339 266.656 332.589 266.652L355.346 266.589C356.595 266.587 357.795 266.924 358.68 267.527C359.565 268.13 360.064 268.949 360.068 269.805L360.116 289.913C360.116 290.769 359.621 291.591 358.739 292.199C357.856 292.807 356.659 293.15 355.409 293.155Z" fill="#6A6A6A"/>
<path d="M313.847 293.155L291.09 293.217C289.84 293.22 288.641 292.883 287.756 292.28C286.87 291.677 286.371 290.858 286.368 290.002L286.32 269.893C286.319 269.037 286.814 268.215 287.697 267.608C288.579 267 289.776 266.656 291.026 266.652L313.783 266.589C315.033 266.587 316.232 266.924 317.117 267.527C318.002 268.13 318.501 268.949 318.505 269.805L318.553 289.913C318.554 290.769 318.059 291.591 317.176 292.199C316.294 292.807 315.096 293.15 313.847 293.155Z" fill="#6A6A6A"/>
<path d="M235.174 293.155L212.418 293.217C211.168 293.22 209.969 292.883 209.084 292.28C208.198 291.677 207.699 290.858 207.696 290.002L207.648 269.893C207.647 269.037 208.142 268.215 209.025 267.608C209.907 267 211.104 266.656 212.354 266.652L235.111 266.589C236.361 266.587 237.56 266.924 238.445 267.527C239.33 268.13 239.829 268.949 239.833 269.805L239.881 289.913C239.882 290.769 239.386 291.591 238.504 292.199C237.622 292.807 236.424 293.15 235.174 293.155Z" fill="#6A6A6A"/>
<path d="M273.768 293.155L251.012 293.217C249.762 293.22 248.563 292.883 247.677 292.28C246.792 291.677 246.293 290.858 246.29 290.002L246.241 269.893C246.241 269.037 246.736 268.215 247.618 267.608C248.501 267 249.698 266.656 250.948 266.652L273.705 266.589C274.955 266.587 276.154 266.924 277.039 267.527C277.924 268.13 278.423 268.949 278.427 269.805L278.475 289.913C278.475 290.769 277.98 291.591 277.098 292.199C276.216 292.807 275.018 293.15 273.768 293.155Z" fill="#6A6A6A"/>
<path d="M521.573 262.15L498.816 262.212C497.566 262.215 496.367 261.878 495.482 261.275C494.597 260.672 494.097 259.853 494.094 258.997L494.046 238.888C494.045 238.032 494.54 237.21 495.423 236.603C496.305 235.995 497.503 235.651 498.752 235.647L521.509 235.584C522.759 235.582 523.958 235.919 524.843 236.522C525.729 237.124 526.228 237.944 526.231 238.8L526.279 258.908C526.28 259.764 525.785 260.586 524.902 261.194C524.02 261.802 522.823 262.145 521.573 262.15Z" fill="#6A6A6A"/>
<path d="M478.573 262.15L455.816 262.212C454.566 262.215 453.367 261.878 452.482 261.275C451.597 260.672 451.097 259.853 451.094 258.997L451.046 238.888C451.045 238.032 451.54 237.21 452.423 236.603C453.305 235.995 454.503 235.651 455.752 235.647L478.509 235.584C479.759 235.582 480.958 235.919 481.843 236.522C482.729 237.124 483.228 237.944 483.231 238.8L483.279 258.908C483.28 259.764 482.785 260.586 481.902 261.194C481.02 261.802 479.823 262.145 478.573 262.15Z" fill="#6A6A6A"/>
<path d="M437.573 262.15L414.816 262.212C413.566 262.215 412.367 261.878 411.482 261.275C410.597 260.672 410.097 259.853 410.094 258.997L410.046 238.888C410.045 238.032 410.54 237.21 411.423 236.603C412.305 235.995 413.503 235.651 414.752 235.647L437.509 235.584C438.759 235.582 439.958 235.919 440.843 236.522C441.729 237.124 442.228 237.944 442.231 238.8L442.279 258.908C442.28 259.764 441.785 260.586 440.902 261.194C440.02 261.802 438.823 262.145 437.573 262.15Z" fill="#6A6A6A"/>
<path d="M396.573 262.15L373.816 262.212C372.566 262.215 371.367 261.878 370.482 261.275C369.597 260.672 369.098 259.853 369.094 258.997L369.046 238.888C369.045 238.032 369.54 237.21 370.423 236.603C371.305 235.995 372.503 235.651 373.752 235.647L396.509 235.584C397.759 235.582 398.958 235.919 399.843 236.522C400.729 237.124 401.228 237.944 401.231 238.8L401.279 258.908C401.28 259.764 400.785 260.586 399.902 261.194C399.02 261.802 397.823 262.145 396.573 262.15Z" fill="#6A6A6A"/>
<path d="M354.573 263.15L331.816 263.212C330.566 263.215 329.367 262.878 328.482 262.275C327.597 261.672 327.097 260.853 327.094 259.997L327.046 239.888C327.045 239.032 327.54 238.21 328.423 237.603C329.305 236.995 330.503 236.651 331.752 236.647L354.509 236.584C355.759 236.582 356.958 236.919 357.843 237.522C358.729 238.124 359.228 238.944 359.231 239.8L359.279 259.908C359.28 260.764 358.785 261.586 357.902 262.194C357.02 262.802 355.823 263.145 354.573 263.15Z" fill="#6A6A6A"/>
<path d="M313.573 263.15L290.816 263.212C289.566 263.215 288.367 262.878 287.482 262.275C286.597 261.672 286.097 260.853 286.094 259.997L286.046 239.888C286.045 239.032 286.54 238.21 287.423 237.603C288.305 236.995 289.503 236.651 290.752 236.647L313.509 236.584C314.759 236.582 315.958 236.919 316.843 237.522C317.729 238.124 318.228 238.944 318.231 239.8L318.279 259.908C318.28 260.764 317.785 261.586 316.902 262.194C316.02 262.802 314.823 263.145 313.573 263.15Z" fill="#6A6A6A"/>
<path d="M509.211 249.711L507.82 251.156V255H506.32V243.625H507.82V249.25L512.875 243.625H514.688L510.211 248.648L515.039 255H513.242L509.211 249.711Z" fill="white"/>
<path d="M472.062 255H470.555L464.828 246.234V255H463.32V243.625H464.828L470.57 252.43V243.625H472.062V255Z" fill="white"/>
<path d="M428.602 251.031H423.836L422.766 254H421.219L425.562 242.625H426.875L431.227 254H429.688L428.602 251.031ZM424.289 249.797H428.156L426.219 244.477L424.289 249.797Z" fill="white"/>
<path d="M389.062 255H387.555V249.742H381.82V255H380.32V243.625H381.82V248.516H387.555V243.625H389.062V255Z" fill="white"/>
<path d="M342.672 250.93C341.385 250.56 340.448 250.107 339.859 249.57C339.276 249.029 338.984 248.362 338.984 247.57C338.984 246.674 339.341 245.935 340.055 245.352C340.773 244.763 341.706 244.469 342.852 244.469C343.633 244.469 344.328 244.62 344.938 244.922C345.552 245.224 346.026 245.641 346.359 246.172C346.698 246.703 346.867 247.284 346.867 247.914H345.359C345.359 247.227 345.141 246.688 344.703 246.297C344.266 245.901 343.648 245.703 342.852 245.703C342.112 245.703 341.534 245.867 341.117 246.195C340.706 246.518 340.5 246.969 340.5 247.547C340.5 248.01 340.695 248.404 341.086 248.727C341.482 249.044 342.151 249.336 343.094 249.602C344.042 249.867 344.781 250.161 345.312 250.484C345.849 250.802 346.245 251.174 346.5 251.602C346.76 252.029 346.891 252.531 346.891 253.109C346.891 254.031 346.531 254.771 345.812 255.328C345.094 255.88 344.133 256.156 342.93 256.156C342.148 256.156 341.419 256.008 340.742 255.711C340.065 255.409 339.542 254.997 339.172 254.477C338.807 253.956 338.625 253.365 338.625 252.703H340.133C340.133 253.391 340.385 253.935 340.891 254.336C341.401 254.732 342.081 254.93 342.93 254.93C343.721 254.93 344.328 254.768 344.75 254.445C345.172 254.122 345.383 253.682 345.383 253.125C345.383 252.568 345.188 252.138 344.797 251.836C344.406 251.529 343.698 251.227 342.672 250.93Z" fill="white"/>
<path d="M303.602 253.031H298.836L297.766 256H296.219L300.562 244.625H301.875L306.227 256H304.688L303.602 253.031ZM299.289 251.797H303.156L301.219 246.477L299.289 251.797Z" fill="white"/>
<path d="M273.452 263.65L250.696 263.713C249.446 263.715 248.247 263.378 247.361 262.775C246.476 262.172 245.977 261.353 245.974 260.497L245.925 240.389C245.925 239.533 246.42 238.711 247.302 238.103C248.185 237.495 249.382 237.152 250.632 237.147L273.389 237.085C274.639 237.082 275.838 237.419 276.723 238.022C277.608 238.625 278.107 239.444 278.111 240.3L278.159 260.409C278.159 261.265 277.664 262.087 276.782 262.694C275.9 263.302 274.702 263.646 273.452 263.65Z" fill="#6A6A6A"/>
<path d="M223.744 252.235C221.834 251.86 220.443 251.4 219.569 250.856C218.703 250.307 218.27 249.631 218.27 248.828C218.27 247.919 218.8 247.169 219.859 246.577C220.926 245.98 222.31 245.682 224.011 245.682C225.17 245.682 226.203 245.835 227.107 246.142C228.019 246.448 228.723 246.87 229.218 247.409C229.72 247.948 229.971 248.537 229.971 249.176L227.733 249.176C227.733 248.479 227.409 247.932 226.759 247.536C226.11 247.135 225.194 246.934 224.011 246.934C222.913 246.934 222.055 247.1 221.436 247.433C220.826 247.761 220.52 248.218 220.52 248.804C220.52 249.274 220.81 249.673 221.39 250C221.977 250.323 222.971 250.618 224.37 250.888C225.777 251.157 226.875 251.456 227.664 251.783C228.46 252.105 229.048 252.483 229.426 252.916C229.813 253.349 230.006 253.859 230.006 254.445C230.006 255.38 229.473 256.131 228.406 256.696C227.339 257.256 225.913 257.536 224.127 257.536C222.967 257.536 221.885 257.385 220.88 257.084C219.875 256.778 219.098 256.36 218.549 255.832C218.008 255.304 217.737 254.704 217.737 254.033L219.975 254.033C219.975 254.731 220.35 255.283 221.1 255.689C221.858 256.091 222.867 256.292 224.127 256.292C225.302 256.292 226.203 256.128 226.829 255.8C227.455 255.473 227.768 255.027 227.768 254.461C227.768 253.896 227.478 253.46 226.898 253.154C226.319 252.842 225.267 252.536 223.744 252.235Z" fill="#6A6A6A"/>
<path d="M223.744 252.235C221.834 251.86 220.443 251.4 219.569 250.856C218.703 250.307 218.27 249.631 218.27 248.828C218.27 247.919 218.8 247.169 219.859 246.577C220.926 245.98 222.31 245.682 224.011 245.682C225.17 245.682 226.203 245.835 227.107 246.142C228.019 246.448 228.723 246.87 229.218 247.409C229.72 247.948 229.971 248.537 229.971 249.176L227.733 249.176C227.733 248.479 227.409 247.932 226.759 247.536C226.11 247.135 225.194 246.934 224.011 246.934C222.913 246.934 222.055 247.1 221.436 247.433C220.826 247.761 220.52 248.218 220.52 248.804C220.52 249.274 220.81 249.673 221.39 250C221.977 250.323 222.971 250.618 224.37 250.888C225.777 251.157 226.875 251.456 227.664 251.783C228.46 252.105 229.048 252.483 229.426 252.916C229.813 253.349 230.006 253.859 230.006 254.445C230.006 255.38 229.473 256.131 228.406 256.696C227.339 257.256 225.913 257.536 224.127 257.536C222.967 257.536 221.885 257.385 220.88 257.084C219.875 256.778 219.098 256.36 218.549 255.832C218.008 255.304 217.737 254.704 217.737 254.033L219.975 254.033C219.975 254.731 220.35 255.283 221.1 255.689C221.858 256.091 222.867 256.292 224.127 256.292C225.302 256.292 226.203 256.128 226.829 255.8C227.455 255.473 227.768 255.027 227.768 254.461C227.768 253.896 227.478 253.46 226.898 253.154C226.319 252.842 225.267 252.536 223.744 252.235Z" fill="#6A6A6A"/>
<path d="M265.062 256H263.555V250.742H257.82V256H256.32V244.625H257.82V249.516H263.555V244.625H265.062V256Z" fill="white"/>
<path d="M222.672 250.93C221.385 250.56 220.448 250.107 219.859 249.57C219.276 249.029 218.984 248.362 218.984 247.57C218.984 246.674 219.341 245.935 220.055 245.352C220.773 244.763 221.706 244.469 222.852 244.469C223.633 244.469 224.328 244.62 224.938 244.922C225.552 245.224 226.026 245.641 226.359 246.172C226.698 246.703 226.867 247.284 226.867 247.914H225.359C225.359 247.227 225.141 246.688 224.703 246.297C224.266 245.901 223.648 245.703 222.852 245.703C222.112 245.703 221.534 245.867 221.117 246.195C220.706 246.518 220.5 246.969 220.5 247.547C220.5 248.01 220.695 248.404 221.086 248.727C221.482 249.044 222.151 249.336 223.094 249.602C224.042 249.867 224.781 250.161 225.312 250.484C225.849 250.802 226.245 251.174 226.5 251.602C226.76 252.029 226.891 252.531 226.891 253.109C226.891 254.031 226.531 254.771 225.812 255.328C225.094 255.88 224.133 256.156 222.93 256.156C222.148 256.156 221.419 256.008 220.742 255.711C220.065 255.409 219.542 254.997 219.172 254.477C218.807 253.956 218.625 253.365 218.625 252.703H220.133C220.133 253.391 220.385 253.935 220.891 254.336C221.401 254.732 222.081 254.93 222.93 254.93C223.721 254.93 224.328 254.768 224.75 254.445C225.172 254.122 225.383 253.682 225.383 253.125C225.383 252.568 225.188 252.138 224.797 251.836C224.406 251.529 223.698 251.227 222.672 250.93Z" fill="white"/>
<path d="M222.469 273.265H223.977V281.32C223.977 282.408 223.649 283.26 222.992 283.875C222.341 284.489 221.472 284.796 220.383 284.796C219.253 284.796 218.373 284.507 217.742 283.929C217.112 283.351 216.797 282.541 216.797 281.5H218.297C218.297 282.151 218.474 282.658 218.828 283.023C219.188 283.388 219.706 283.57 220.383 283.57C221.003 283.57 221.503 283.375 221.883 282.984C222.268 282.593 222.464 282.046 222.469 281.343V273.265Z" fill="white"/>
<path d="M591.93 285H590.43V273.625H591.93V285Z" fill="white"/>
<path d="M548.828 283.773H554.219V285H547.32V273.625H548.828V283.773Z" fill="white"/>
<path d="M507.828 283.773H513.219V285H506.32V273.625H507.828V283.773Z" fill="white"/>
<path d="M469.75 279.742H464.82V283.773H470.547V285H463.32V273.625H470.469V274.859H464.82V278.516H469.75V279.742Z" fill="white"/>
<path d="M424.82 280.547V285H423.32V273.625H427.516C428.76 273.625 429.734 273.943 430.438 274.578C431.146 275.214 431.5 276.055 431.5 277.102C431.5 278.206 431.154 279.057 430.461 279.656C429.773 280.25 428.786 280.547 427.5 280.547H424.82ZM424.82 279.32H427.516C428.318 279.32 428.932 279.133 429.359 278.758C429.786 278.378 430 277.831 430 277.117C430 276.44 429.786 275.898 429.359 275.492C428.932 275.086 428.346 274.875 427.602 274.859H424.82V279.32Z" fill="white"/>
<path d="M386.602 282.031H381.836L380.766 285H379.219L383.562 273.625H384.875L389.227 285H387.688L386.602 282.031ZM382.289 280.797H386.156L384.219 275.477L382.289 280.797Z" fill="white"/>
<path d="M340.828 283.773H346.219V285H339.32V273.625H340.828V283.773Z" fill="white"/>
<path d="M298.626 283.414H304.016V284.64H297.118V273.265H298.626V283.414Z" fill="white"/>
<path d="M263.602 282.031H258.836L257.766 285H256.219L260.562 273.625H261.875L266.227 285H264.688L263.602 282.031ZM259.289 280.797H263.156L261.219 275.477L259.289 280.797Z" fill="white"/>
</g>
<path d="M413.456 352.948C413.456 352.948 397.479 351.35 396.414 352.948C395.718 354.261 395.353 355.723 395.349 357.209C395.349 357.209 388.958 359.871 387.892 358.806C386.827 357.741 385.762 354.546 382.567 355.611C379.371 356.676 372.98 375.849 372.98 375.849C372.98 375.849 374.578 369.99 377.241 392.359C379.904 414.727 379.371 428.574 379.904 430.171C380.436 431.769 377.241 441.356 396.414 441.356C415.586 441.356 429.433 440.29 429.433 436.562C429.433 432.834 426.238 416.857 429.433 405.14C432.629 393.424 437.422 377.446 437.422 377.446L431.031 356.676C431.031 356.676 424.64 355.078 423.042 357.741C421.445 360.404 417.184 359.871 417.184 359.871C417.184 359.871 416.652 353.481 413.456 352.948Z" fill="#7883E3"/>
<path d="M474.17 317.265C474.17 317.265 484.289 289.572 475.235 290.637C466.181 291.702 468.311 303.418 468.311 303.418V317.265L474.17 317.265Z" fill="#FBBEBE"/>
<path d="M337.83 316.2C337.83 316.2 327.711 288.506 336.765 289.572C345.819 290.637 343.689 302.353 343.689 302.353V316.2L337.83 316.2Z" fill="#FBBEBE"/>
<path d="M383.099 356.676L369.785 350.818C369.785 350.818 344.754 331.645 345.819 314.603C345.819 314.603 337.298 306.614 336.765 315.135C336.233 323.656 338.896 342.829 345.286 349.22C351.677 355.611 373.513 375.849 376.708 376.381C379.904 376.914 383.099 356.676 383.099 356.676Z" fill="#605D82"/>
<path d="M428.901 357.741L442.215 351.883C442.215 351.883 467.246 332.71 466.181 315.668C466.181 315.668 474.702 307.679 475.235 316.2C475.767 324.721 473.105 343.894 466.714 350.285C460.323 356.676 438.487 376.914 435.292 377.446C432.096 377.979 428.901 357.741 428.901 357.741Z" fill="#605D82"/>
<path d="M416.119 323.656L417.717 322.591C417.717 322.591 407.598 316.733 403.337 319.928C399.077 323.124 398.011 325.787 396.946 326.852C395.881 327.917 393.218 333.775 394.816 335.906C396.414 338.036 395.881 338.473 396.946 340.385C398.011 342.297 395.085 349.988 403.206 352.267C411.326 354.546 417.717 344.959 418.782 342.829C419.847 340.699 423.575 326.319 416.119 323.656Z" fill="#46455B"/>
</g>
<defs>
<clipPath id="clip0">
<rect width="1014.53" height="597.436" fill="white"/>
</clipPath>
<clipPath id="clip1">
<rect width="611" height="373" fill="white" transform="translate(134 117)"/>
</clipPath>
</defs>
</svg>
